#!OML:ASF E:\emotionWalksFemale\Project 1\Capture day 1\Session 1\Female1.ASF
:FULLY-SPECIFIED
:DEGREES
2533
root 8.86092 15.306 -38.7706 368.93 12.5058 -6.16067
lowerback 14.0493 3.42996 -5.00985
upperback -0.0661627 3.57185 -1.90493
thorax -8.15307 1.88433 0.0387292
lowerneck -6.09561 -5.21499 -6.59943
upperneck 39.4913 -9.92267 10.5307
head 16.003 -3.83247 4.31996
rclavicle 5.96354e-014 -7.63333e-014
rhumerus -10.4834 37.7197 -100.406
rradius 42.8386
rwrist 10.5939
rhand 0.0940775 -43.7546
rfingers 7.12502
rthumb 25.6805 -72.0423
lclavicle 5.96354e-014 -7.63333e-014
lhumerus -17.8645 -1.87673 84.7634
lradius 38.8748
lwrist -7.22859
lhand -11.7942 -32.8468
lfingers 7.12502
lthumb 14.2554 -3.35605
rfemur -15.2547 6.54672 33.8551
rtibia 25.2495
rfoot -21.3885 -14.1346
rtoes 7.36279
lfemur -41.2202 -32.8863 3.30199
ltibia 29.5171
lfoot -19.5015 14.8225
ltoes -48.1861
2534
root 8.83712 15.2999 -38.7812 368.699 12.6073 -6.16267
lowerback 13.8749 3.42102 -5.21591
upperback -0.0965859 3.54683 -1.79384
thorax -8.10702 1.88331 0.286131
lowerneck -6.03858 -5.2157 -6.61242
upperneck 39.5595 -9.91364 10.4836
head 16.0214 -3.8366 4.30773
rclavicle 3.73715e-014 2.06736e-014
rhumerus -10.6004 36.4642 -100.068
rradius 42.8464
rwrist 10.9593
rhand 2.56292 -43.4633
rfingers 7.12502
rthumb 28.0428 -71.3877
lclavicle 3.73715e-014 2.06736e-014
lhumerus -18.2696 -1.73008 84.8232
lradius 38.987
lwrist -7.28997
lhand -11.8495 -32.6751
lfingers 7.12502
lthumb 14.2021 -3.18064
rfemur -14.9757 6.7469 33.9765
rtibia 25.0081
rfoot -21.0918 -14.5374
rtoes 7.23742
lfemur -41.033 -32.4914 3.00256
ltibia 29.7244
lfoot -19.5995 14.2043
ltoes -48.4106
2535
root 8.81375 15.2961 -38.7901 368.409 12.5927 -6.21428
lowerback 13.6973 3.44624 -5.44581
upperback -0.109726 3.56704 -1.65228
thorax -8.04626 1.90516 0.570222
lowerneck -5.9761 -5.17626 -6.61194
upperneck 39.5975 -9.85577 10.4669
head 16.0164 -3.81512 4.31285
rclavicle 4.85035e-014 -4.13472e-014
rhumerus -10.8655 35.5528 -99.7621
rradius 42.7854
rwrist 11.4726
rhand 3.78702 -43.4902
rfingers 7.12502
rthumb 29.2123 -71.2173
lclavicle 4.85035e-014 -4.13472e-014
lhumerus -18.6849 -1.60102 84.8348
lradius 39.0639
lwrist -7.29023
lhand -11.908 -32.5426
lfingers 7.12502
lthumb 14.1457 -3.04416
rfemur -14.5765 7.17948 34.1425
rtibia 24.6966
rfoot -20.7178 -15.1198
rtoes 6.67135
lfemur -40.7857 -32.1805 2.74291
ltibia 30.0312
lfoot -19.7726 13.8612
ltoes -48.8579
2536
root 8.79491 15.2862 -38.7988 368.129 12.6045 -6.26144
lowerback 13.7532 3.44012 -5.15683
upperback -0.234639 3.58007 -1.86189
thorax -8.18132 1.89852 0.174487
lowerneck -6.27488 -5.15519 -6.13102
upperneck 39.9778 -9.91925 10.3647
head 16.2662 -3.7668 4.18575
rclavicle 5.56597e-014 1.27222e-014
rhumerus -11.5428 35.4582 -100.151
rradius 42.8755
rwrist 9.18492
rhand -0.941729 -45.4245
rfingers 7.12502
rthumb 24.6881 -73.8517
lclavicle 5.56597e-014 1.27222e-014
lhumerus -19.2325 -1.91825 84.4198
lradius 39.1444
lwrist -7.16761
lhand -11.7665 -32.8241
lfingers 7.12502
lthumb 14.282 -3.33522
rfemur -14.1434 7.3543 34.3448
rtibia 24.34
rfoot -20.4086 -15.7078
rtoes 4.74475
lfemur -40.5294 -31.7095 2.3585
ltibia 30.4023
lfoot -19.7851 13.645
ltoes -49.9525
2537
root 8.77666 15.2636 -38.8081 367.847 12.6762 -6.28652
lowerback 13.5985 3.37707 -5.05002
upperback -0.162651 3.52341 -1.9199
thorax -8.00224 1.86351 0.0778686
lowerneck -5.99903 -5.17764 -6.35256
upperneck 39.7519 -10.0192 10.6921
head 16.1325 -3.81905 4.35111
rclavicle -3.93594e-014 -9.54166e-015
rhumerus -11.6069 34.9713 -99.9465
rradius 42.7133
rwrist 8.47079
rhand -2.09978 -45.6457
rfingers 7.12502
rthumb 23.5777 -74.2203
lclavicle -3.93594e-014 -9.54166e-015
lhumerus -19.5019 -1.73586 84.188
lradius 39.1854
lwrist -7.1904
lhand -11.9576 -33.0602
lfingers 7.12502
lthumb 14.0978 -3.55843
rfemur -13.73 7.23373 34.5808
rtibia 23.9989
rfoot -19.8969 -16.3976
rtoes 1.50184
lfemur -40.3326 -31.1541 1.93097
ltibia 30.7806
lfoot -20.0015 13.2561
ltoes -50.6023
